<mxfile host="app.diagrams.net" modified="2021-08-09T06:18:39.876Z" agent="5.0 (Macintosh; Intel Mac OS X 10_15_7) AppleWebKit/537.36 (KHTML, like Gecko) Chrome/91.0.4472.114 Safari/537.36" etag="Iwd0sKstOvS_Y2IWGJUs" version="14.9.4" type="github">
  <diagram id="C5RBs43oDa-KdzZeNtuy" name="Page-1">
    <mxGraphModel dx="1426" dy="815" grid="1" gridSize="10" guides="1" tooltips="1" connect="1" arrows="1" fold="1" page="1" pageScale="1" pageWidth="827" pageHeight="1169" math="0" shadow="0">
      <root>
        <mxCell id="WIyWlLk6GJQsqaUBKTNV-0" />
        <mxCell id="WIyWlLk6GJQsqaUBKTNV-1" parent="WIyWlLk6GJQsqaUBKTNV-0" />
        <mxCell id="5PaKn99zVJKhvMJdUCyI-3" style="edgeStyle=orthogonalEdgeStyle;rounded=0;orthogonalLoop=1;jettySize=auto;html=1;exitX=0.5;exitY=1;exitDx=0;exitDy=0;entryX=0.5;entryY=0;entryDx=0;entryDy=0;" edge="1" parent="WIyWlLk6GJQsqaUBKTNV-1" source="WIyWlLk6GJQsqaUBKTNV-3" target="WIyWlLk6GJQsqaUBKTNV-7">
          <mxGeometry relative="1" as="geometry" />
        </mxCell>
        <mxCell id="5PaKn99zVJKhvMJdUCyI-5" style="edgeStyle=orthogonalEdgeStyle;rounded=0;orthogonalLoop=1;jettySize=auto;html=1;exitX=0.5;exitY=0;exitDx=0;exitDy=0;entryX=0.5;entryY=0;entryDx=0;entryDy=0;" edge="1" parent="WIyWlLk6GJQsqaUBKTNV-1" source="5PaKn99zVJKhvMJdUCyI-6" target="5PaKn99zVJKhvMJdUCyI-4">
          <mxGeometry relative="1" as="geometry" />
        </mxCell>
        <mxCell id="WIyWlLk6GJQsqaUBKTNV-3" value="创建任务组" style="rounded=1;whiteSpace=wrap;html=1;fontSize=12;glass=0;strokeWidth=1;shadow=0;fillColor=#dae8fc;strokeColor=#6c8ebf;" parent="WIyWlLk6GJQsqaUBKTNV-1" vertex="1">
          <mxGeometry x="320" y="80" width="120" height="40" as="geometry" />
        </mxCell>
        <mxCell id="WIyWlLk6GJQsqaUBKTNV-7" value="创建任务" style="rounded=1;whiteSpace=wrap;html=1;fontSize=12;glass=0;strokeWidth=1;shadow=0;fillColor=#fad9d5;strokeColor=#ae4132;" parent="WIyWlLk6GJQsqaUBKTNV-1" vertex="1">
          <mxGeometry x="160" y="160" width="120" height="40" as="geometry" />
        </mxCell>
        <mxCell id="5PaKn99zVJKhvMJdUCyI-16" style="edgeStyle=orthogonalEdgeStyle;rounded=0;orthogonalLoop=1;jettySize=auto;html=1;exitX=0.5;exitY=1;exitDx=0;exitDy=0;entryX=0.5;entryY=0;entryDx=0;entryDy=0;" edge="1" parent="WIyWlLk6GJQsqaUBKTNV-1" source="5PaKn99zVJKhvMJdUCyI-4" target="5PaKn99zVJKhvMJdUCyI-8">
          <mxGeometry relative="1" as="geometry" />
        </mxCell>
        <mxCell id="5PaKn99zVJKhvMJdUCyI-17" value="" style="edgeStyle=orthogonalEdgeStyle;rounded=0;orthogonalLoop=1;jettySize=auto;html=1;" edge="1" parent="WIyWlLk6GJQsqaUBKTNV-1" source="5PaKn99zVJKhvMJdUCyI-4" target="5PaKn99zVJKhvMJdUCyI-9">
          <mxGeometry relative="1" as="geometry" />
        </mxCell>
        <mxCell id="5PaKn99zVJKhvMJdUCyI-19" style="edgeStyle=orthogonalEdgeStyle;rounded=0;orthogonalLoop=1;jettySize=auto;html=1;exitX=0.5;exitY=1;exitDx=0;exitDy=0;entryX=0.5;entryY=0;entryDx=0;entryDy=0;" edge="1" parent="WIyWlLk6GJQsqaUBKTNV-1" source="5PaKn99zVJKhvMJdUCyI-4" target="5PaKn99zVJKhvMJdUCyI-10">
          <mxGeometry relative="1" as="geometry" />
        </mxCell>
        <mxCell id="5PaKn99zVJKhvMJdUCyI-4" value="创建任务" style="rounded=1;whiteSpace=wrap;html=1;fontSize=12;glass=0;strokeWidth=1;shadow=0;fillColor=#fad9d5;strokeColor=#ae4132;" vertex="1" parent="WIyWlLk6GJQsqaUBKTNV-1">
          <mxGeometry x="294" y="160" width="120" height="40" as="geometry" />
        </mxCell>
        <mxCell id="5PaKn99zVJKhvMJdUCyI-6" value="创建任务" style="rounded=1;whiteSpace=wrap;html=1;fontSize=12;glass=0;strokeWidth=1;shadow=0;fillColor=#fad9d5;strokeColor=#ae4132;" vertex="1" parent="WIyWlLk6GJQsqaUBKTNV-1">
          <mxGeometry x="530" y="160" width="120" height="40" as="geometry" />
        </mxCell>
        <mxCell id="5PaKn99zVJKhvMJdUCyI-7" value="······" style="text;html=1;align=center;verticalAlign=middle;whiteSpace=wrap;rounded=0;" vertex="1" parent="WIyWlLk6GJQsqaUBKTNV-1">
          <mxGeometry x="450" y="170" width="40" height="20" as="geometry" />
        </mxCell>
        <mxCell id="5PaKn99zVJKhvMJdUCyI-8" value="创建批次" style="rounded=1;whiteSpace=wrap;html=1;fontSize=12;glass=0;strokeWidth=1;shadow=0;fillColor=#fff2cc;strokeColor=#d6b656;" vertex="1" parent="WIyWlLk6GJQsqaUBKTNV-1">
          <mxGeometry x="160" y="250" width="120" height="40" as="geometry" />
        </mxCell>
        <mxCell id="5PaKn99zVJKhvMJdUCyI-29" style="edgeStyle=orthogonalEdgeStyle;rounded=0;orthogonalLoop=1;jettySize=auto;html=1;exitX=0.5;exitY=1;exitDx=0;exitDy=0;entryX=0.5;entryY=0;entryDx=0;entryDy=0;" edge="1" parent="WIyWlLk6GJQsqaUBKTNV-1" source="5PaKn99zVJKhvMJdUCyI-9" target="5PaKn99zVJKhvMJdUCyI-28">
          <mxGeometry relative="1" as="geometry" />
        </mxCell>
        <mxCell id="5PaKn99zVJKhvMJdUCyI-9" value="创建批次" style="rounded=1;whiteSpace=wrap;html=1;fontSize=12;glass=0;strokeWidth=1;shadow=0;fillColor=#fff2cc;strokeColor=#d6b656;" vertex="1" parent="WIyWlLk6GJQsqaUBKTNV-1">
          <mxGeometry x="294" y="250" width="120" height="40" as="geometry" />
        </mxCell>
        <mxCell id="5PaKn99zVJKhvMJdUCyI-10" value="创建批次" style="rounded=1;whiteSpace=wrap;html=1;fontSize=12;glass=0;strokeWidth=1;shadow=0;fillColor=#fff2cc;strokeColor=#d6b656;" vertex="1" parent="WIyWlLk6GJQsqaUBKTNV-1">
          <mxGeometry x="530" y="250" width="120" height="40" as="geometry" />
        </mxCell>
        <mxCell id="5PaKn99zVJKhvMJdUCyI-11" value="······" style="text;html=1;align=center;verticalAlign=middle;whiteSpace=wrap;rounded=0;" vertex="1" parent="WIyWlLk6GJQsqaUBKTNV-1">
          <mxGeometry x="450" y="260" width="40" height="20" as="geometry" />
        </mxCell>
        <mxCell id="5PaKn99zVJKhvMJdUCyI-20" value="创建任务" style="rounded=1;whiteSpace=wrap;html=1;fontSize=12;glass=0;strokeWidth=1;shadow=0;fillColor=#fad9d5;strokeColor=#ae4132;" vertex="1" parent="WIyWlLk6GJQsqaUBKTNV-1">
          <mxGeometry x="670" y="160" width="120" height="40" as="geometry" />
        </mxCell>
        <mxCell id="5PaKn99zVJKhvMJdUCyI-22" style="edgeStyle=orthogonalEdgeStyle;rounded=0;orthogonalLoop=1;jettySize=auto;html=1;exitX=0.5;exitY=1;exitDx=0;exitDy=0;entryX=0.5;entryY=0;entryDx=0;entryDy=0;" edge="1" parent="WIyWlLk6GJQsqaUBKTNV-1" source="5PaKn99zVJKhvMJdUCyI-21" target="5PaKn99zVJKhvMJdUCyI-20">
          <mxGeometry relative="1" as="geometry" />
        </mxCell>
        <mxCell id="5PaKn99zVJKhvMJdUCyI-21" value="无归属任务组" style="text;html=1;align=center;verticalAlign=middle;whiteSpace=wrap;rounded=0;" vertex="1" parent="WIyWlLk6GJQsqaUBKTNV-1">
          <mxGeometry x="680" y="90" width="100" height="20" as="geometry" />
        </mxCell>
        <mxCell id="5PaKn99zVJKhvMJdUCyI-23" value="正式批次" style="rounded=1;whiteSpace=wrap;html=1;fontSize=12;glass=0;strokeWidth=1;shadow=0;fillColor=#fff2cc;strokeColor=#d6b656;" vertex="1" parent="WIyWlLk6GJQsqaUBKTNV-1">
          <mxGeometry x="160" y="380" width="120" height="40" as="geometry" />
        </mxCell>
        <mxCell id="5PaKn99zVJKhvMJdUCyI-24" value="灰度批次" style="rounded=1;whiteSpace=wrap;html=1;fontSize=12;glass=0;strokeWidth=1;shadow=0;fillColor=#f5f5f5;strokeColor=#666666;fontColor=#333333;" vertex="1" parent="WIyWlLk6GJQsqaUBKTNV-1">
          <mxGeometry x="421" y="380" width="120" height="40" as="geometry" />
        </mxCell>
        <mxCell id="5PaKn99zVJKhvMJdUCyI-30" style="edgeStyle=orthogonalEdgeStyle;rounded=0;orthogonalLoop=1;jettySize=auto;html=1;exitX=0;exitY=0.5;exitDx=0;exitDy=0;entryX=0.5;entryY=0;entryDx=0;entryDy=0;" edge="1" parent="WIyWlLk6GJQsqaUBKTNV-1" source="5PaKn99zVJKhvMJdUCyI-28" target="5PaKn99zVJKhvMJdUCyI-23">
          <mxGeometry relative="1" as="geometry" />
        </mxCell>
        <mxCell id="5PaKn99zVJKhvMJdUCyI-31" style="edgeStyle=orthogonalEdgeStyle;rounded=0;orthogonalLoop=1;jettySize=auto;html=1;exitX=1;exitY=0.5;exitDx=0;exitDy=0;entryX=0.5;entryY=0;entryDx=0;entryDy=0;" edge="1" parent="WIyWlLk6GJQsqaUBKTNV-1" source="5PaKn99zVJKhvMJdUCyI-28" target="5PaKn99zVJKhvMJdUCyI-24">
          <mxGeometry relative="1" as="geometry" />
        </mxCell>
        <mxCell id="5PaKn99zVJKhvMJdUCyI-28" value="选择批次类型" style="rhombus;whiteSpace=wrap;html=1;fillColor=#d5e8d4;strokeColor=#82b366;" vertex="1" parent="WIyWlLk6GJQsqaUBKTNV-1">
          <mxGeometry x="287" y="310" width="134" height="60" as="geometry" />
        </mxCell>
        <mxCell id="5PaKn99zVJKhvMJdUCyI-35" value="" style="endArrow=none;html=1;exitX=0.5;exitY=1;exitDx=0;exitDy=0;entryX=0.5;entryY=1;entryDx=0;entryDy=0;" edge="1" parent="WIyWlLk6GJQsqaUBKTNV-1" source="5PaKn99zVJKhvMJdUCyI-23" target="5PaKn99zVJKhvMJdUCyI-24">
          <mxGeometry width="50" height="50" relative="1" as="geometry">
            <mxPoint x="390" y="410" as="sourcePoint" />
            <mxPoint x="440" y="360" as="targetPoint" />
            <Array as="points">
              <mxPoint x="220" y="440" />
              <mxPoint x="481" y="440" />
            </Array>
          </mxGeometry>
        </mxCell>
        <mxCell id="5PaKn99zVJKhvMJdUCyI-37" value="" style="endArrow=classic;html=1;entryX=0.5;entryY=0;entryDx=0;entryDy=0;" edge="1" parent="WIyWlLk6GJQsqaUBKTNV-1">
          <mxGeometry width="50" height="50" relative="1" as="geometry">
            <mxPoint x="354" y="440" as="sourcePoint" />
            <mxPoint x="354" y="460" as="targetPoint" />
          </mxGeometry>
        </mxCell>
        <mxCell id="5PaKn99zVJKhvMJdUCyI-40" value="触达方式" style="swimlane;" vertex="1" parent="WIyWlLk6GJQsqaUBKTNV-1">
          <mxGeometry x="700" y="445" width="110" height="140" as="geometry" />
        </mxCell>
        <mxCell id="5PaKn99zVJKhvMJdUCyI-44" value="动态邮件" style="text;html=1;align=center;verticalAlign=middle;resizable=0;points=[];autosize=1;strokeColor=none;" vertex="1" parent="5PaKn99zVJKhvMJdUCyI-40">
          <mxGeometry x="25" y="70" width="60" height="20" as="geometry" />
        </mxCell>
        <mxCell id="5PaKn99zVJKhvMJdUCyI-42" value="短信" style="text;html=1;align=center;verticalAlign=middle;resizable=0;points=[];autosize=1;strokeColor=none;" vertex="1" parent="5PaKn99zVJKhvMJdUCyI-40">
          <mxGeometry x="35" y="30" width="40" height="20" as="geometry" />
        </mxCell>
        <mxCell id="5PaKn99zVJKhvMJdUCyI-43" value="邮件" style="text;html=1;align=center;verticalAlign=middle;resizable=0;points=[];autosize=1;strokeColor=none;" vertex="1" parent="5PaKn99zVJKhvMJdUCyI-40">
          <mxGeometry x="35" y="50" width="40" height="20" as="geometry" />
        </mxCell>
        <mxCell id="5PaKn99zVJKhvMJdUCyI-46" value="微信" style="text;html=1;align=center;verticalAlign=middle;resizable=0;points=[];autosize=1;strokeColor=none;" vertex="1" parent="5PaKn99zVJKhvMJdUCyI-40">
          <mxGeometry x="35" y="110" width="40" height="20" as="geometry" />
        </mxCell>
        <mxCell id="5PaKn99zVJKhvMJdUCyI-45" value="App Push" style="text;html=1;align=center;verticalAlign=middle;resizable=0;points=[];autosize=1;strokeColor=none;" vertex="1" parent="5PaKn99zVJKhvMJdUCyI-40">
          <mxGeometry x="20" y="90" width="70" height="20" as="geometry" />
        </mxCell>
        <mxCell id="5PaKn99zVJKhvMJdUCyI-88" style="edgeStyle=orthogonalEdgeStyle;rounded=0;orthogonalLoop=1;jettySize=auto;html=1;entryX=0.5;entryY=0;entryDx=0;entryDy=0;startArrow=none;startFill=0;endArrow=classic;endFill=1;" edge="1" parent="WIyWlLk6GJQsqaUBKTNV-1" source="5PaKn99zVJKhvMJdUCyI-51" target="5PaKn99zVJKhvMJdUCyI-82">
          <mxGeometry relative="1" as="geometry" />
        </mxCell>
        <mxCell id="5PaKn99zVJKhvMJdUCyI-51" value="创建批次·步骤一" style="swimlane;fontStyle=0;childLayout=stackLayout;horizontal=1;startSize=26;horizontalStack=0;resizeParent=1;resizeParentMax=0;resizeLast=0;collapsible=1;marginBottom=0;fillColor=#d5e8d4;strokeColor=#82b366;" vertex="1" parent="WIyWlLk6GJQsqaUBKTNV-1">
          <mxGeometry x="285" y="458" width="140" height="104" as="geometry">
            <mxRectangle x="285" y="458" width="140" height="26" as="alternateBounds" />
          </mxGeometry>
        </mxCell>
        <mxCell id="5PaKn99zVJKhvMJdUCyI-52" value="批次名称" style="text;strokeColor=none;fillColor=none;align=center;verticalAlign=top;spacingLeft=4;spacingRight=4;overflow=hidden;rotatable=0;points=[[0,0.5],[1,0.5]];portConstraint=eastwest;" vertex="1" parent="5PaKn99zVJKhvMJdUCyI-51">
          <mxGeometry y="26" width="140" height="26" as="geometry" />
        </mxCell>
        <mxCell id="5PaKn99zVJKhvMJdUCyI-53" value="触达方式" style="text;strokeColor=none;fillColor=none;align=center;verticalAlign=top;spacingLeft=4;spacingRight=4;overflow=hidden;rotatable=0;points=[[0,0.5],[1,0.5]];portConstraint=eastwest;" vertex="1" parent="5PaKn99zVJKhvMJdUCyI-51">
          <mxGeometry y="52" width="140" height="26" as="geometry" />
        </mxCell>
        <mxCell id="5PaKn99zVJKhvMJdUCyI-54" value="触达对象来源" style="text;strokeColor=none;fillColor=none;align=center;verticalAlign=top;spacingLeft=4;spacingRight=4;overflow=hidden;rotatable=0;points=[[0,0.5],[1,0.5]];portConstraint=eastwest;" vertex="1" parent="5PaKn99zVJKhvMJdUCyI-51">
          <mxGeometry y="78" width="140" height="26" as="geometry" />
        </mxCell>
        <mxCell id="5PaKn99zVJKhvMJdUCyI-59" value="触达对象来源" style="swimlane;" vertex="1" parent="WIyWlLk6GJQsqaUBKTNV-1">
          <mxGeometry x="10" y="510" width="110" height="100" as="geometry" />
        </mxCell>
        <mxCell id="5PaKn99zVJKhvMJdUCyI-60" value="神策导入" style="text;html=1;align=center;verticalAlign=middle;resizable=0;points=[];autosize=1;strokeColor=none;" vertex="1" parent="5PaKn99zVJKhvMJdUCyI-59">
          <mxGeometry x="25" y="70" width="60" height="20" as="geometry" />
        </mxCell>
        <mxCell id="5PaKn99zVJKhvMJdUCyI-61" value="标签筛选" style="text;html=1;align=center;verticalAlign=middle;resizable=0;points=[];autosize=1;strokeColor=none;" vertex="1" parent="5PaKn99zVJKhvMJdUCyI-59">
          <mxGeometry x="25" y="30" width="60" height="20" as="geometry" />
        </mxCell>
        <mxCell id="5PaKn99zVJKhvMJdUCyI-62" value="Excel导入" style="text;html=1;align=center;verticalAlign=middle;resizable=0;points=[];autosize=1;strokeColor=none;" vertex="1" parent="5PaKn99zVJKhvMJdUCyI-59">
          <mxGeometry x="20" y="50" width="70" height="20" as="geometry" />
        </mxCell>
        <mxCell id="5PaKn99zVJKhvMJdUCyI-69" style="edgeStyle=orthogonalEdgeStyle;rounded=0;orthogonalLoop=1;jettySize=auto;html=1;dashed=1;startArrow=none;startFill=0;endArrow=none;endFill=0;" edge="1" parent="WIyWlLk6GJQsqaUBKTNV-1" source="5PaKn99zVJKhvMJdUCyI-54">
          <mxGeometry relative="1" as="geometry">
            <mxPoint x="120" y="549" as="targetPoint" />
          </mxGeometry>
        </mxCell>
        <mxCell id="5PaKn99zVJKhvMJdUCyI-70" style="edgeStyle=orthogonalEdgeStyle;rounded=0;orthogonalLoop=1;jettySize=auto;html=1;dashed=1;startArrow=none;startFill=0;endArrow=none;endFill=0;" edge="1" parent="WIyWlLk6GJQsqaUBKTNV-1" source="5PaKn99zVJKhvMJdUCyI-53">
          <mxGeometry relative="1" as="geometry">
            <mxPoint x="700" y="523" as="targetPoint" />
          </mxGeometry>
        </mxCell>
        <mxCell id="5PaKn99zVJKhvMJdUCyI-93" style="edgeStyle=orthogonalEdgeStyle;rounded=0;orthogonalLoop=1;jettySize=auto;html=1;entryX=0.5;entryY=0;entryDx=0;entryDy=0;startArrow=none;startFill=0;endArrow=classic;endFill=1;" edge="1" parent="WIyWlLk6GJQsqaUBKTNV-1" source="5PaKn99zVJKhvMJdUCyI-82">
          <mxGeometry relative="1" as="geometry">
            <mxPoint x="355" y="806" as="targetPoint" />
          </mxGeometry>
        </mxCell>
        <mxCell id="5PaKn99zVJKhvMJdUCyI-82" value="创建批次·步骤二" style="swimlane;fontStyle=0;childLayout=stackLayout;horizontal=1;startSize=26;horizontalStack=0;resizeParent=1;resizeParentMax=0;resizeLast=0;collapsible=1;marginBottom=0;fillColor=#d5e8d4;strokeColor=#82b366;" vertex="1" parent="WIyWlLk6GJQsqaUBKTNV-1">
          <mxGeometry x="285" y="660" width="140" height="104" as="geometry">
            <mxRectangle x="285" y="458" width="140" height="26" as="alternateBounds" />
          </mxGeometry>
        </mxCell>
        <mxCell id="5PaKn99zVJKhvMJdUCyI-83" value="五种触达方式的触达内容" style="text;strokeColor=none;fillColor=none;align=center;verticalAlign=top;spacingLeft=4;spacingRight=4;overflow=hidden;rotatable=0;points=[[0,0.5],[1,0.5]];portConstraint=eastwest;" vertex="1" parent="5PaKn99zVJKhvMJdUCyI-82">
          <mxGeometry y="26" width="140" height="26" as="geometry" />
        </mxCell>
        <mxCell id="5PaKn99zVJKhvMJdUCyI-94" value="发送时间" style="text;strokeColor=none;fillColor=none;align=center;verticalAlign=top;spacingLeft=4;spacingRight=4;overflow=hidden;rotatable=0;points=[[0,0.5],[1,0.5]];portConstraint=eastwest;" vertex="1" parent="5PaKn99zVJKhvMJdUCyI-82">
          <mxGeometry y="52" width="140" height="26" as="geometry" />
        </mxCell>
        <mxCell id="5PaKn99zVJKhvMJdUCyI-95" value="插入链接" style="text;strokeColor=none;fillColor=none;align=center;verticalAlign=top;spacingLeft=4;spacingRight=4;overflow=hidden;rotatable=0;points=[[0,0.5],[1,0.5]];portConstraint=eastwest;" vertex="1" parent="5PaKn99zVJKhvMJdUCyI-82">
          <mxGeometry y="78" width="140" height="26" as="geometry" />
        </mxCell>
        <mxCell id="5PaKn99zVJKhvMJdUCyI-97" style="edgeStyle=orthogonalEdgeStyle;rounded=0;orthogonalLoop=1;jettySize=auto;html=1;startArrow=none;startFill=0;endArrow=classic;endFill=1;" edge="1" parent="WIyWlLk6GJQsqaUBKTNV-1" source="5PaKn99zVJKhvMJdUCyI-86">
          <mxGeometry relative="1" as="geometry">
            <mxPoint x="285" y="699" as="targetPoint" />
            <Array as="points">
              <mxPoint x="180" y="699" />
              <mxPoint x="180" y="699" />
            </Array>
          </mxGeometry>
        </mxCell>
        <mxCell id="5PaKn99zVJKhvMJdUCyI-86" value="触达内容模版" style="shape=cylinder3;whiteSpace=wrap;html=1;boundedLbl=1;backgroundOutline=1;size=15;align=center;fillColor=#e1d5e7;strokeColor=#9673a6;" vertex="1" parent="WIyWlLk6GJQsqaUBKTNV-1">
          <mxGeometry x="60" y="670" width="100" height="60" as="geometry" />
        </mxCell>
        <mxCell id="5PaKn99zVJKhvMJdUCyI-98" value="正式提交" style="rounded=1;whiteSpace=wrap;html=1;fontSize=12;glass=0;strokeWidth=1;shadow=0;fillColor=#d5e8d4;strokeColor=#82b366;" vertex="1" parent="WIyWlLk6GJQsqaUBKTNV-1">
          <mxGeometry x="295" y="970" width="120" height="40" as="geometry" />
        </mxCell>
        <mxCell id="5PaKn99zVJKhvMJdUCyI-103" value="" style="edgeStyle=orthogonalEdgeStyle;rounded=0;orthogonalLoop=1;jettySize=auto;html=1;startArrow=none;startFill=0;endArrow=classic;endFill=1;" edge="1" parent="WIyWlLk6GJQsqaUBKTNV-1" source="5PaKn99zVJKhvMJdUCyI-101" target="5PaKn99zVJKhvMJdUCyI-98">
          <mxGeometry relative="1" as="geometry" />
        </mxCell>
        <mxCell id="5PaKn99zVJKhvMJdUCyI-104" style="edgeStyle=orthogonalEdgeStyle;rounded=0;orthogonalLoop=1;jettySize=auto;html=1;exitX=1;exitY=0.5;exitDx=0;exitDy=0;entryX=1;entryY=0.5;entryDx=0;entryDy=0;startArrow=none;startFill=0;endArrow=classic;endFill=1;" edge="1" parent="WIyWlLk6GJQsqaUBKTNV-1" source="5PaKn99zVJKhvMJdUCyI-101" target="5PaKn99zVJKhvMJdUCyI-94">
          <mxGeometry relative="1" as="geometry">
            <Array as="points">
              <mxPoint x="540" y="836" />
              <mxPoint x="540" y="725" />
            </Array>
          </mxGeometry>
        </mxCell>
        <mxCell id="5PaKn99zVJKhvMJdUCyI-101" value="发送测试" style="rhombus;whiteSpace=wrap;html=1;fillColor=#d5e8d4;strokeColor=#82b366;" vertex="1" parent="WIyWlLk6GJQsqaUBKTNV-1">
          <mxGeometry x="288" y="806" width="134" height="60" as="geometry" />
        </mxCell>
        <mxCell id="5PaKn99zVJKhvMJdUCyI-105" value="Text" style="text;html=1;strokeColor=none;fillColor=none;align=center;verticalAlign=middle;whiteSpace=wrap;rounded=0;" vertex="1" parent="WIyWlLk6GJQsqaUBKTNV-1">
          <mxGeometry x="390" y="660" width="40" height="20" as="geometry" />
        </mxCell>
        <mxCell id="5PaKn99zVJKhvMJdUCyI-106" value="发送失败，重新编辑" style="text;html=1;strokeColor=none;fillColor=none;align=center;verticalAlign=middle;whiteSpace=wrap;rounded=0;" vertex="1" parent="WIyWlLk6GJQsqaUBKTNV-1">
          <mxGeometry x="425" y="840" width="134" height="20" as="geometry" />
        </mxCell>
        <mxCell id="5PaKn99zVJKhvMJdUCyI-107" value="发送成功" style="text;html=1;strokeColor=none;fillColor=none;align=center;verticalAlign=middle;whiteSpace=wrap;rounded=0;" vertex="1" parent="WIyWlLk6GJQsqaUBKTNV-1">
          <mxGeometry x="361" y="910" width="53" height="20" as="geometry" />
        </mxCell>
      </root>
    </mxGraphModel>
  </diagram>
</mxfile>
